HIERARCHY
ROOT Hips
{
	OFFSET 0.000000 103.266502 0.000000
	CHANNELS 6 Xposition Yposition Zposition Xrotation Yrotation Zrotation 
	JOINT Spine
	{
		OFFSET -0.002400 12.777504 0.315300
		CHANNELS 3 Xrotation Yrotation Zrotation
		JOINT Spine1
		{
			OFFSET -0.002067 5.816869 0.032633
			CHANNELS 3 Xrotation Yrotation Zrotation
			JOINT Spine1_split
			{
				OFFSET -0.002067 5.816869 0.032633
				CHANNELS 3 Xrotation Yrotation Zrotation
				JOINT Spine2
				{
					OFFSET -0.002067 5.816869 0.032633
					CHANNELS 3 Xrotation Yrotation Zrotation
					JOINT Neck
					{
						OFFSET -0.003700 21.199493 -0.826900
						CHANNELS 3 Xrotation Yrotation Zrotation
						JOINT Head
						{
							OFFSET 0.000000 20.442200 4.834800
							CHANNELS 3 Xrotation Yrotation Zrotation
							JOINT HeadTop_End
							{
								OFFSET 0.000000 34.668396 4.968400
								CHANNELS 3 Xrotation Yrotation Zrotation
								End Site
								{
									OFFSET 0.000000 0.000000 0.000000
								}
							}
						}
					}
					JOINT LeftShoulder
					{
						OFFSET 3.288150 8.794197 -1.372250
						CHANNELS 3 Xrotation Yrotation Zrotation
						JOINT LeftShoulder_split
						{
							OFFSET 3.288150 8.794197 -1.372250
							CHANNELS 3 Xrotation Yrotation Zrotation
							JOINT LeftArm
							{
								OFFSET 11.953299 -2.279007 -0.146200
								CHANNELS 3 Xrotation Yrotation Zrotation
								JOINT LeftForeArm
								{
									OFFSET 18.448900 0.000000 0.000000
									CHANNELS 3 Xrotation Yrotation Zrotation
									JOINT LeftHand
									{
										OFFSET 29.527798 0.000000 0.000000
										CHANNELS 3 Xrotation Yrotation Zrotation
										JOINT LeftHandThumb1
										{
											OFFSET 10.739754 -2.369614 9.225399
											CHANNELS 3 Xrotation Yrotation Zrotation
											JOINT LeftHandThumb2
											{
												OFFSET 4.926170 -2.844131 2.844125
												CHANNELS 3 Xrotation Yrotation Zrotation
												JOINT LeftHandThumb3
												{
													OFFSET 4.614891 -2.664413 2.664409
													CHANNELS 3 Xrotation Yrotation Zrotation
													JOINT LeftHandThumb4
													{
														OFFSET 4.432465 -2.559082 2.559083
														CHANNELS 3 Xrotation Yrotation Zrotation
														End Site
														{
															OFFSET 0.000000 0.000000 0.000000
														}
													}
												}
											}
										}
										JOINT LeftHandIndex1
										{
											OFFSET 26.467674 0.187653 6.405298
											CHANNELS 3 Xrotation Yrotation Zrotation
											JOINT LeftHandIndex2
											{
												OFFSET 8.792900 0.000000 0.000000
												CHANNELS 3 Xrotation Yrotation Zrotation
												JOINT LeftHandIndex3
												{
													OFFSET 10.075203 0.000000 0.000000
													CHANNELS 3 Xrotation Yrotation Zrotation
													End Site
													{
														OFFSET 0.000000 0.000000 0.000000
													}
												}
											}
										}
										JOINT LeftHandMiddle1
										{
											OFFSET 25.764404 0.000000 0.000000
											CHANNELS 3 Xrotation Yrotation Zrotation
											JOINT LeftHandMiddle2
											{
												OFFSET 9.393974 0.000000 0.000000
												CHANNELS 3 Xrotation Yrotation Zrotation
												JOINT LeftHandMiddle3
												{
													OFFSET 10.771950 0.000000 0.000000
													CHANNELS 3 Xrotation Yrotation Zrotation
													End Site
													{
														OFFSET 0.000000 0.000000 0.000000
													}
												}
											}
										}
										JOINT LeftHandRing1
										{
											OFFSET 24.660927 0.144547 -6.225808
											CHANNELS 3 Xrotation Yrotation Zrotation
											JOINT LeftHandRing2
											{
												OFFSET 9.393799 0.000000 0.000000
												CHANNELS 3 Xrotation Yrotation Zrotation
												JOINT LeftHandRing3
												{
													OFFSET 9.928497 0.000000 0.000000
													CHANNELS 3 Xrotation Yrotation Zrotation
													End Site
													{
														OFFSET 0.000000 0.000000 0.000000
													}
												}
											}
										}
										JOINT LeftHandPinky1
										{
											OFFSET 23.655350 0.125290 -12.815412
											CHANNELS 3 Xrotation Yrotation Zrotation
											JOINT LeftHandPinky2
											{
												OFFSET 8.425102 0.000000 0.000000
												CHANNELS 3 Xrotation Yrotation Zrotation
												JOINT LeftHandPinky3
												{
													OFFSET 8.147003 0.000000 0.000000
													CHANNELS 3 Xrotation Yrotation Zrotation
													End Site
													{
														OFFSET 0.000000 0.000000 0.000000
													}
												}
											}
										}
									}
								}
							}
						}
					}
					JOINT RightShoulder
					{
						OFFSET -3.249400 8.794197 -1.372250
						CHANNELS 3 Xrotation Yrotation Zrotation
						JOINT RightShoulder_split
						{
							OFFSET -3.249400 8.794197 -1.372250
							CHANNELS 3 Xrotation Yrotation Zrotation
							JOINT RightArm
							{
								OFFSET -11.953299 -2.279007 -0.146200
								CHANNELS 3 Xrotation Yrotation Zrotation
								JOINT RightForeArm
								{
									OFFSET -18.448900 0.000000 0.000000
									CHANNELS 3 Xrotation Yrotation Zrotation
									JOINT RightHand
									{
										OFFSET -29.527802 0.000000 0.000000
										CHANNELS 3 Xrotation Yrotation Zrotation
										JOINT RightHandThumb1
										{
											OFFSET -10.739754 -2.369614 9.225399
											CHANNELS 3 Xrotation Yrotation Zrotation
											JOINT RightHandThumb2
											{
												OFFSET -4.926170 -2.844131 2.844125
												CHANNELS 3 Xrotation Yrotation Zrotation
												JOINT RightHandThumb3
												{
													OFFSET -4.614891 -2.664413 2.664409
													CHANNELS 3 Xrotation Yrotation Zrotation
													JOINT RightHandThumb4
													{
														OFFSET -4.432465 -2.559082 2.559083
														CHANNELS 3 Xrotation Yrotation Zrotation
														End Site
														{
															OFFSET 0.000000 0.000000 0.000000
														}
													}
												}
											}
										}
										JOINT RightHandIndex1
										{
											OFFSET -26.467674 0.187653 6.405298
											CHANNELS 3 Xrotation Yrotation Zrotation
											JOINT RightHandIndex2
											{
												OFFSET -8.792900 0.000000 0.000000
												CHANNELS 3 Xrotation Yrotation Zrotation
												JOINT RightHandIndex3
												{
													OFFSET -10.075203 0.000000 0.000000
													CHANNELS 3 Xrotation Yrotation Zrotation
													End Site
													{
														OFFSET 0.000000 0.000000 0.000000
													}
												}
											}
										}
										JOINT RightHandMiddle1
										{
											OFFSET -25.764404 0.000000 0.000000
											CHANNELS 3 Xrotation Yrotation Zrotation
											JOINT RightHandMiddle2
											{
												OFFSET -9.393974 0.000000 0.000000
												CHANNELS 3 Xrotation Yrotation Zrotation
												JOINT RightHandMiddle3
												{
													OFFSET -10.771950 0.000000 0.000000
													CHANNELS 3 Xrotation Yrotation Zrotation
													End Site
													{
														OFFSET 0.000000 0.000000 0.000000
													}
												}
											}
										}
										JOINT RightHandRing1
										{
											OFFSET -24.660927 0.144547 -6.225808
											CHANNELS 3 Xrotation Yrotation Zrotation
											JOINT RightHandRing2
											{
												OFFSET -9.393799 0.000000 0.000000
												CHANNELS 3 Xrotation Yrotation Zrotation
												JOINT RightHandRing3
												{
													OFFSET -9.928497 0.000000 0.000000
													CHANNELS 3 Xrotation Yrotation Zrotation
													End Site
													{
														OFFSET 0.000000 0.000000 0.000000
													}
												}
											}
										}
										JOINT RightHandPinky1
										{
											OFFSET -23.655350 0.125290 -12.815412
											CHANNELS 3 Xrotation Yrotation Zrotation
											JOINT RightHandPinky2
											{
												OFFSET -8.425102 0.000000 0.000000
												CHANNELS 3 Xrotation Yrotation Zrotation
												JOINT RightHandPinky3
												{
													OFFSET -8.147003 0.000000 0.000000
													CHANNELS 3 Xrotation Yrotation Zrotation
													End Site
													{
														OFFSET 0.000000 0.000000 0.000000
													}
												}
											}
										}
									}
								}
							}
						}
					}
				}
			}
		}
	}
	JOINT LeftUpLeg
	{
		OFFSET 11.394100 -6.187798 -0.413800
		CHANNELS 3 Xrotation Yrotation Zrotation
		JOINT LeftLeg
		{
			OFFSET 0.430247 -32.302673 3.732800
			CHANNELS 3 Xrotation Yrotation Zrotation
			JOINT LeftFoot
			{
				OFFSET -0.430247 -48.264931 -6.423300
				CHANNELS 3 Xrotation Yrotation Zrotation
				JOINT LeftToeBase
				{
					OFFSET 4.230900 -16.068199 23.438400
					CHANNELS 3 Xrotation Yrotation Zrotation
					JOINT LeftToe_End
					{
						OFFSET 4.510700 0.695400 19.974600
						CHANNELS 3 Xrotation Yrotation Zrotation
						End Site
						{
							OFFSET 0.000000 0.000000 0.000000
						}
					}
				}
			}
		}
	}
	JOINT RightUpLeg
	{
		OFFSET -11.333700 -6.187798 -0.413800
		CHANNELS 3 Xrotation Yrotation Zrotation
		JOINT RightLeg
		{
			OFFSET -0.430392 -32.302628 3.733000
			CHANNELS 3 Xrotation Yrotation Zrotation
			JOINT RightFoot
			{
				OFFSET 0.430392 -48.264973 -6.423500
				CHANNELS 3 Xrotation Yrotation Zrotation
				JOINT RightToeBase
				{
					OFFSET -4.230900 -16.068199 23.438400
					CHANNELS 3 Xrotation Yrotation Zrotation
					JOINT RightToe_End
					{
						OFFSET -4.510700 0.695400 19.974600
						CHANNELS 3 Xrotation Yrotation Zrotation
						End Site
						{
							OFFSET 0.000000 0.000000 0.000000
						}
					}
				}
			}
		}
	}
}
MOTION
Frames: 4
Frame Time: 0.016667
67.959175 99.685287 42.645523 4.646504 68.432560 -4.404188 1.576793 15.706640 -2.202810 0.302476 12.349556 -1.690999 0.000000 0.000000 0.000000 0.319025 12.258881 -2.268429 30.683792 -16.732679 8.274235 -37.265546 -69.684418 -3.375887 0.000000 -0.000000 0.000000 -2.027418 -8.616109 -14.640802 0.000000 0.000000 0.000000 564.659170 -127.569520 506.102155 -0.000002 -67.460809 -0.000006 -133.641530 -5.524228 50.251945 -10.936362 -6.746920 10.333077 -18.089394 8.879765 2.392676 2.024258 8.904802 14.660547 -0.000001 -0.000002 -0.000002 5.890365 8.200078 -88.621834 6.193153 5.841092 -93.357635 0.000002 0.000001 -0.000000 7.765545 7.904032 -107.399493 3.749180 5.461732 -68.913494 0.000005 0.000000 -0.000001 7.314730 8.035633 -105.795006 3.608028 5.405438 -67.422915 -0.000001 -0.000001 0.000000 10.390453 6.780246 -113.877121 1.172183 3.517159 -36.854014 0.000001 0.000000 0.000001 -8.395410 33.279868 21.038929 0.000000 0.000000 0.000000 6.092956 31.507499 48.663448 0.000006 48.322393 0.000001 -20.121560 -43.295299 5.646343 17.912431 17.120583 -32.483516 12.694388 -52.014230 20.210839 2.934330 3.697810 -26.040875 0.000001 0.000003 -0.000002 0.276352 -8.899014 1.740167 5.888274 -4.491840 105.344193 0.000000 0.000000 -0.000001 4.166160 -8.600795 42.153216 7.050165 -3.996497 120.947146 -0.000001 -0.000000 0.000000 -0.361096 -4.549284 57.044241 4.703198 -4.656932 90.567099 -0.000001 0.000000 0.000001 -5.324598 -0.292083 51.887301 3.524526 -4.517628 75.909254 -0.000001 0.000001 0.000001 -24.748340 -10.289146 0.962863 19.720670 0.573894 -8.529287 4.344238 -18.753174 5.772747 0.069468 -2.860520 -0.863376 -0.000000 0.000001 0.000000 -4.154448 -14.102159 -1.329714 37.838391 -5.026682 -3.725732 -5.599545 -12.940965 10.859436 -24.513923 -1.309332 3.460206 -0.000000 0.000002 -0.000000 
67.611404 99.651588 42.461388 4.318527 67.242031 -4.087642 1.575051 15.381603 -2.105968 0.343534 12.111571 -1.597175 0.000000 0.000000 0.000000 0.355242 12.030038 -2.142364 30.067722 -16.587201 7.620746 -36.544442 -68.821847 -2.824783 0.000000 -0.000001 -0.000000 -1.967089 -8.442205 -14.580910 0.000000 0.000000 0.000000 563.731685 -126.918316 505.300673 0.000007 -66.037336 -0.000001 -133.517002 -3.963451 49.001819 -10.936445 -6.746921 10.333394 -18.089394 8.879768 2.392677 2.035133 8.896546 14.627289 0.000000 -0.000002 -0.000001 5.890359 8.200069 -88.621821 6.193152 5.841090 -93.357655 0.000000 -0.000000 -0.000000 7.765536 7.904030 -107.399520 3.753027 5.463213 -68.954079 -0.000001 0.000000 -0.000001 7.314735 8.035624 -105.794979 3.608018 5.405415 -67.422901 0.000000 -0.000000 -0.000001 10.390453 6.780231 -113.877142 1.175914 3.522155 -36.915137 -0.000000 -0.000001 0.000001 -8.428599 32.859050 21.486426 0.000000 0.000000 0.000000 5.768032 31.090943 48.692026 -0.000008 48.134402 -0.000003 -19.464974 -44.389430 4.704366 17.912439 17.120576 -32.483567 12.694390 -52.014226 20.210837 2.934327 3.697805 -26.040877 0.000001 0.000001 0.000002 0.276348 -8.899010 1.740154 5.888277 -4.491840 105.344200 -0.000000 -0.000001 0.000000 4.166160 -8.600800 42.153209 7.050166 -3.996498 120.947146 -0.000000 -0.000000 0.000000 -0.361093 -4.549278 57.044234 4.703202 -4.656934 90.567099 0.000001 -0.000000 0.000001 -5.324602 -0.292073 51.887308 3.524526 -4.517631 75.909254 -0.000002 0.000000 0.000002 -24.846054 -10.144551 1.231350 19.899160 1.382601 -8.532720 4.332531 -18.613801 5.628016 0.069551 -2.860522 -0.863370 -0.000000 0.000002 -0.000000 -3.679806 -12.481768 -1.472757 36.926612 -5.649785 -3.591449 -7.104738 -15.666618 9.897882 -20.083497 -1.585175 5.476984 0.000000 0.000001 0.000000 
67.227699 99.663887 42.283306 4.053109 65.968330 -3.899668 1.529952 15.053310 -1.968794 0.349806 11.848911 -1.478820 0.000000 0.000000 0.000000 0.356715 11.776931 -1.992126 29.489342 -16.410172 6.935825 -35.776340 -67.919804 -2.237555 -0.000001 0.000000 0.000000 -1.896974 -8.276085 -14.474767 0.000000 0.000000 0.000000 562.789501 -126.168402 504.520666 -0.000000 -64.514361 -0.000006 -133.165903 -2.289634 47.769315 -10.936561 -6.746923 10.333456 -18.089394 8.879767 2.392676 2.046078 8.888243 14.593852 -0.000001 -0.000001 0.000001 5.890358 8.200084 -88.621807 6.193152 5.841102 -93.357628 -0.000003 0.000000 -0.000000 7.765539 7.904034 -107.399500 3.758015 5.465105 -69.006289 0.000002 -0.000000 -0.000001 7.314739 8.035646 -105.794993 3.608016 5.405430 -67.422908 -0.000004 0.000000 0.000000 10.390459 6.780251 -113.877128 1.180760 3.528573 -36.993787 0.000001 0.000000 -0.000000 -8.483174 32.397793 22.014847 0.000000 0.000000 0.000000 5.553993 30.650354 48.597773 -0.000008 48.025498 0.000000 -19.267291 -45.436293 3.569766 17.912426 17.120579 -32.483540 12.694388 -52.014223 20.210832 2.934328 3.697806 -26.040880 0.000001 0.000004 0.000001 0.276356 -8.899012 1.740158 5.888274 -4.491840 105.344200 -0.000000 -0.000001 -0.000000 4.166156 -8.600791 42.153202 7.050162 -3.996496 120.947159 -0.000001 0.000000 0.000000 -0.361097 -4.549279 57.044241 4.703198 -4.656932 90.567099 0.000000 0.000000 0.000002 -5.324602 -0.292069 51.887291 3.524524 -4.517629 75.909254 -0.000001 -0.000000 0.000001 -24.844381 -9.967504 1.633702 19.921900 2.256243 -8.524372 4.383533 -18.524865 5.457677 0.069633 -2.860522 -0.863367 -0.000000 0.000002 -0.000000 -2.457123 -11.414699 -1.340839 35.108514 -4.443613 -3.626978 -8.484262 -20.483396 8.446774 -15.401479 -1.514967 7.623659 -0.000000 0.000000 -0.000000 
66.833183 99.689110 42.104866 3.838269 64.764120 -3.677281 1.518385 14.686315 -1.926234 0.371862 11.541075 -1.378603 0.000000 0.000000 0.000000 0.372755 11.478280 -1.856315 28.899309 -16.213867 6.271608 -35.170673 -67.009647 -1.806515 0.000000 0.000000 0.000000 -1.822197 -8.117080 -14.348525 0.000000 0.000000 0.000000 561.935728 -125.327838 503.893436 0.000033 -62.965082 0.000040 -132.533100 -0.580726 46.575641 -10.936736 -6.746915 10.333263 -18.089394 8.879765 2.392676 2.057075 8.879875 14.560244 -0.000001 -0.000004 -0.000000 5.890362 8.200083 -88.621814 6.193164 5.841094 -93.357628 0.000002 0.000000 -0.000001 7.765526 7.904047 -107.399493 3.763885 5.467376 -69.068014 -0.000001 0.000001 -0.000002 7.314739 8.035638 -105.794993 3.608015 5.405442 -67.422908 0.000002 -0.000000 -0.000000 10.390447 6.780251 -113.877108 1.186492 3.536151 -37.086677 -0.000005 0.000001 -0.000002 -8.552613 31.896891 22.612287 0.000000 0.000000 0.000000 5.447656 30.142506 48.410851 -0.000019 48.027626 0.000009 -19.755357 -46.276126 2.026003 17.912424 17.120578 -32.483540 12.694380 -52.014216 20.210825 2.934324 3.697804 -26.040875 0.000000 0.000002 0.000002 0.276350 -8.899013 1.740161 5.888277 -4.491840 105.344193 -0.000000 -0.000000 0.000000 4.166158 -8.600798 42.153209 7.050168 -3.996497 120.947159 0.000003 0.000001 0.000002 -0.361099 -4.549279 57.044227 4.703201 -4.656933 90.567099 0.000000 0.000000 0.000004 -5.324600 -0.292077 51.887315 3.524523 -4.517630 75.909247 0.000000 -0.000001 -0.000002 -24.772176 -9.796606 1.947665 19.781234 3.171286 -8.501917 4.518363 -18.485786 5.288141 0.069720 -2.860515 -0.863365 -0.000000 0.000000 0.000000 -1.308830 -11.222097 -1.325549 33.096450 -2.658423 -3.842239 -9.753553 -25.519967 6.673482 -10.839476 -1.143903 9.611379 0.000000 0.000004 -0.000000 
